<svg width="40" height="40" viewBox="0 0 40 40" fill="none" xmlns="http://www.w3.org/2000/svg">
<circle cx="20" cy="20" r="20" fill="#969696"/>
<path d="M26.96 26.5467V15.9867H16.4V15.3267C16.4 14.2348 17.2881 13.3467 18.38 13.3467H20.36V9.38672H18.38C16.8052 9.38867 15.2955 10.0151 14.1819 11.1287C13.0684 12.2422 12.4419 13.7519 12.44 15.3267V15.9867H9.79999V19.9467H12.44V26.5467H9.79999V30.5067H19.04V26.5467H16.4V19.9467H23.0369V26.5467H20.36V30.5067H29.6V26.5467H26.96Z" fill="white"/>
<path d="M24.98 13.3467C26.0735 13.3467 26.96 12.4602 26.96 11.3667C26.96 10.2732 26.0735 9.38672 24.98 9.38672C23.8865 9.38672 23 10.2732 23 11.3667C23 12.4602 23.8865 13.3467 24.98 13.3467Z" fill="white"/>
</svg>
