<svg width="40" height="40" viewBox="0 0 40 40" fill="none" xmlns="http://www.w3.org/2000/svg">
<circle cx="20" cy="20" r="20" fill="#969696"/>
<path fill-rule="evenodd" clip-rule="evenodd" d="M20 6.39999C12.486 6.39999 6.39999 12.4564 6.39999 19.9339C6.39999 25.9226 10.293 30.9809 15.699 32.7741C16.379 32.8926 16.634 32.4865 16.634 32.1313C16.634 31.8098 16.617 30.7441 16.617 29.6106C13.2 30.2365 12.316 28.7816 12.044 28.0204C11.891 27.6313 11.228 26.4301 10.65 26.1087C10.174 25.8549 9.49399 25.229 10.633 25.2121C11.704 25.1952 12.469 26.1933 12.724 26.5993C13.948 28.6463 15.903 28.0711 16.685 27.7159C16.804 26.8361 17.161 26.244 17.552 25.9057C14.526 25.5673 11.364 24.4001 11.364 19.2233C11.364 17.7515 11.891 16.5335 12.758 15.5861C12.622 15.2478 12.146 13.8605 12.894 11.9996C12.894 11.9996 14.033 11.6444 16.634 13.3869C17.722 13.0823 18.878 12.9301 20.034 12.9301C21.19 12.9301 22.346 13.0823 23.434 13.3869C26.035 11.6275 27.174 11.9996 27.174 11.9996C27.922 13.8605 27.446 15.2478 27.31 15.5861C28.177 16.5335 28.704 17.7346 28.704 19.2233C28.704 24.417 25.525 25.5673 22.499 25.9057C22.992 26.3286 23.417 27.1407 23.417 28.4095C23.417 30.2196 23.4 31.6745 23.4 32.1313C23.4 32.4865 23.655 32.9095 24.335 32.7741C27.0348 31.8671 29.3808 30.1403 31.0428 27.8369C32.7048 25.5336 33.5992 22.7695 33.6 19.9339C33.6 12.4564 27.514 6.39999 20 6.39999Z" fill="white"/>
</svg>
