<svg width="40" height="40" viewBox="0 0 40 40" fill="none" xmlns="http://www.w3.org/2000/svg">
<circle cx="20" cy="20" r="20" fill="#969696"/>
<path d="M32.7542 21.595L29.405 9.94947V9.94633C29.1713 9.22712 28.6146 8.79999 27.9196 8.79999C27.1999 8.79999 26.6125 9.22398 26.3911 9.9055L24.1952 16.5951H16.6049L14.409 9.9055C14.1875 9.22398 13.6001 8.79999 12.8805 8.79999C12.17 8.79999 11.5734 9.2648 11.3919 9.94947L8.0458 21.595C7.91048 22.0567 8.08271 22.5812 8.46099 22.8733L19.7941 31.554C19.8741 31.6671 19.9848 31.7519 20.114 31.799L20.3785 32L20.6399 31.799C20.7906 31.7456 20.9167 31.6514 21.0059 31.5195L32.336 22.8701C32.7173 22.5812 32.8896 22.0567 32.7542 21.595ZM27.7658 10.3263C27.7966 10.2698 27.855 10.2667 27.8734 10.2667C27.9073 10.2667 27.9503 10.2761 27.978 10.3609L29.8048 16.6359H25.6991L27.7658 10.3263ZM12.7759 10.3578C12.8036 10.2761 12.8466 10.2667 12.8805 10.2667C12.9635 10.2667 12.9696 10.2698 12.985 10.3201L15.0548 16.6391H10.9983L12.7759 10.3578ZM9.53126 21.7991L10.3985 18.7433L16.6233 27.2293L9.53126 21.7991ZM11.804 18.1434H15.5592L18.3517 27.0723L11.804 18.1434ZM20.4215 28.6238L17.1246 18.1434H23.7154L20.4215 28.6238ZM25.2777 18.1434H28.9529L22.4852 26.9624L25.2777 18.1434ZM24.026 27.3738L30.4015 18.6836L31.3088 21.7991L24.026 27.3738Z" fill="white"/>
</svg>
