<svg width="40" height="40" viewBox="0 0 40 40" fill="none" xmlns="http://www.w3.org/2000/svg">
<circle cx="20" cy="20" r="20" fill="#969696"/>
<path d="M14.1402 28.8V16.3855H9.85295V28.8H14.1402ZM11.9971 14.6895C13.4921 14.6895 14.4227 13.7363 14.4227 12.545C14.3949 11.3268 13.4922 10.4 12.0255 10.4C10.559 10.4 9.60001 11.3268 9.60001 12.545C9.60001 13.7363 10.5304 14.6895 11.9691 14.6895H11.9971ZM16.5131 28.8H20.8003V21.8672C20.8003 21.4961 20.8282 21.1255 20.9414 20.8602C21.2513 20.1189 21.9568 19.3511 23.1411 19.3511C24.6924 19.3511 25.3131 20.4896 25.3131 22.1585V28.7999H29.6V21.6816C29.6 17.8683 27.4849 16.0941 24.6642 16.0941C22.3514 16.0941 21.336 17.3383 20.7718 18.1858H20.8004V16.3853H16.5132C16.5695 17.5502 16.5131 28.8 16.5131 28.8Z" fill="white"/>
</svg>
